# 3ds Max Wavefront OBJ Exporter v0.97b - (c)2007 guruware
# File Created: 03.01.2016 03:45:10

mtllib 3d-model.mtl

#
# object Group_001
#

v  -21.4031 2.2189 0.6890
v  -23.6220 0.0000 0.6890
v  -23.6220 0.0000 0.2953
v  -20.4724 3.1496 0.6890
v  -20.4724 3.1496 -0.6889
v  -23.6220 0.0000 -0.6889
v  20.4724 28.3465 -0.6889
v  -20.4724 28.3465 -0.6889
v  -23.6220 31.4961 -0.6889
v  23.6220 31.4961 -0.6889
v  20.4724 3.1496 0.6890
v  20.4724 3.1496 -0.6889
v  23.6220 0.0000 -0.6889
v  21.4031 2.2189 0.6890
v  23.6220 0.0000 0.6890
v  23.6220 0.0000 0.2953
v  20.4724 28.3465 0.6890
v  21.4031 29.2772 0.6890
v  23.6220 31.4961 0.6890
v  23.6220 31.4961 0.2953
v  -23.6220 31.4961 0.2953
v  -23.6220 31.4961 0.6890
v  -21.4031 29.2772 0.6890
v  -20.4724 28.3465 0.6890
v  23.1354 31.0094 0.5709
v  23.1354 0.4866 0.5709
v  23.1354 0.4866 0.2953
v  23.1354 31.0094 0.2953
v  -21.4031 29.2772 0.4134
v  21.4031 29.2772 0.4134
v  -22.8205 2.2189 0.5709
v  -22.8205 0.8016 0.5709
v  -22.8205 0.8016 0.4134
v  -22.8205 30.6945 0.5709
v  -22.8205 30.6945 0.4134
v  -22.8205 2.2189 0.4134
v  -23.1354 0.4866 0.5709
v  -23.1354 0.4866 0.2953
v  -21.4031 2.2189 0.4134
v  21.4031 2.2189 0.4134
v  22.8205 0.8016 0.5709
v  22.8205 0.8016 0.4134
v  -23.1354 31.0094 0.2953
v  -23.1354 31.0094 0.5709
v  -23.6220 2.2189 0.2953
v  -23.6220 0.4866 0.2953
v  22.8205 30.6945 0.5709
v  22.8205 30.6945 0.4134
v  -23.1354 2.2189 0.5709
v  -23.1354 2.2189 0.2953
# 50 vertices

vn 0.7071 -0.7071 -0.0000
vn 0.0000 0.0000 -1.0000
vn 0.0000 1.0000 -0.0000
vn -0.7071 -0.7071 0.0000
vn 0.7071 0.7071 -0.0000
vn 0.0000 -1.0000 -0.0000
vn -1.0000 0.0000 -0.0000
vn 1.0000 0.0000 -0.0000
vn 0.0000 0.0000 1.0000
# 9 vertex normals

vt 0.0000 0.0523 0.0000
vt 0.0000 0.0000 0.0000
vt 0.0066 0.0000 0.0000
vt 0.0000 0.0742 0.0000
vt 0.0230 0.0742 0.0000
vt 0.0230 0.0000 0.0000
vt -0.7349 0.4724 0.0000
vt -0.0525 0.4724 0.0000
vt 0.0000 0.5249 0.0000
vt -0.7874 0.5249 0.0000
vt 0.0525 0.0230 0.0000
vt 0.0525 0.0000 0.0000
vt 0.7349 -0.0000 0.0000
vt 0.7349 0.0230 0.0000
vt -0.0525 0.0525 0.0000
vt 0.0000 -0.4825 0.0000
vt -0.0230 -0.4825 0.0000
vt -0.0230 -0.5568 0.0000
vt 0.0000 -0.5045 0.0000
vt 0.0000 -0.5568 0.0000
vt -0.0066 -0.5568 0.0000
vt 0.0000 0.8537 0.0000
vt 0.0230 0.8537 0.0000
vt 0.0230 0.9280 0.0000
vt 0.0000 0.8757 0.0000
vt 0.0000 0.9280 0.0000
vt 0.0066 0.9280 0.0000
vt -0.7874 0.0000 0.0000
vt -0.7349 0.0525 0.0000
vt 0.0066 0.3712 0.0000
vt 0.0000 0.3712 0.0000
vt 0.0000 0.3189 0.0000
vt 0.0230 0.3712 0.0000
vt 0.0230 0.2969 0.0000
vt 0.0000 0.2969 0.0000
vt -0.0525 0.0000 0.0000
vt -0.0525 0.0230 0.0000
vt -0.7349 0.0230 0.0000
vt -0.7349 0.0000 0.0000
vt -0.0230 0.0525 0.0000
vt -0.0000 0.4724 0.0000
vt -0.0230 0.4724 0.0000
vt 0.0230 0.0525 0.0000
vt 0.0230 0.4724 0.0000
vt 0.0020 0.5168 0.0000
vt 0.0020 0.0081 0.0000
vt 0.0066 0.0081 0.0000
vt 0.0066 0.5168 0.0000
vt 0.0370 0.0046 0.0000
vt 0.0370 0.0000 0.0000
vt 0.7504 0.0000 0.0000
vt 0.7504 0.0046 0.0000
vt 0.0020 0.0370 0.0000
vt 0.0020 0.0134 0.0000
vt 0.0046 0.0134 0.0000
vt 0.0020 0.5116 0.0000
vt 0.0046 0.5116 0.0000
vt 0.0046 0.0370 0.0000
vt -0.0081 0.0020 0.0000
vt -0.0081 0.0066 0.0000
vt -0.7793 0.0066 0.0000
vt -0.7793 0.0020 0.0000
vt -0.0000 0.0370 0.0000
vt -0.0000 0.4880 0.0000
vt -0.0046 0.4880 0.0000
vt -0.0046 0.0370 0.0000
vt 0.0046 0.4880 0.0000
vt 0.0134 0.0046 0.0000
vt 0.0134 0.0020 0.0000
vt 0.7740 0.0020 0.0000
vt 0.7740 0.0046 0.0000
vt 0.0081 0.0066 0.0000
vt 0.0081 0.0020 0.0000
vt 0.7793 0.0020 0.0000
vt 0.7793 0.0066 0.0000
vt -0.0066 0.0370 0.0000
vt -0.0066 0.5249 0.0000
vt -0.0230 0.5249 0.0000
vt -0.0066 0.0081 0.0000
vt -0.0066 0.0000 0.0000
vt -0.0230 0.0000 0.0000
vt 0.0525 0.4724 0.0000
vt 0.7349 0.4724 0.0000
vt 0.7504 0.4880 0.0000
vt 0.0370 0.4880 0.0000
vt 0.0000 0.0066 0.0000
vt 0.0000 0.0230 0.0000
vt -0.7874 0.0230 0.0000
vt -0.7874 0.0066 0.0000
vt 0.0370 0.0370 0.0000
vt 0.0525 0.0525 0.0000
vt 0.0066 0.5249 0.0000
vt 0.0230 0.5249 0.0000
vt -0.0370 0.0000 0.0000
vt -0.0370 0.0046 0.0000
vt -0.7504 0.0046 0.0000
vt -0.7504 0.0000 0.0000
vt -0.0020 0.0134 0.0000
vt -0.0020 0.5116 0.0000
vt -0.0046 0.5116 0.0000
vt -0.0046 0.0134 0.0000
vt 0.7874 0.0066 0.0000
vt 0.7874 0.0230 0.0000
vt 0.7349 0.0525 0.0000
vt 0.7504 0.0370 0.0000
vt -0.0134 0.0020 0.0000
vt -0.0134 0.0046 0.0000
vt -0.7740 0.0046 0.0000
vt -0.7740 0.0020 0.0000
vt -0.0020 0.0370 0.0000
vt -0.0020 0.5168 0.0000
vt -0.0066 0.5168 0.0000
vt -0.0020 0.0081 0.0000
vt 0.0134 0.0134 0.0000
vt 0.7740 0.0134 0.0000
vt 0.7740 0.5116 0.0000
vt 0.0134 0.5116 0.0000
vt 0.0134 0.0370 0.0000
vt 0.0081 0.0081 0.0000
vt 0.7793 0.0081 0.0000
vt 0.7793 0.5168 0.0000
vt 0.0081 0.5168 0.0000
vt 0.0081 0.0370 0.0000
vt 0.7874 0.0000 0.0000
vt 0.7874 0.5249 0.0000
vt 0.0000 0.0081 0.0000
# 126 texture coords

g Group_001
usemtl Wood__Floor
s off
f 1/1/1 2/2/1 3/3/1 4/4/1 
f 5/5/1 4/4/1 3/3/1 6/6/1 
f 7/7/2 8/8/2 9/9/2 10/10/2 
f 5/11/3 4/12/3 11/13/3 12/14/3 
f 5/15/2 6/2/2 9/9/2 8/8/2 
f 11/16/4 12/17/4 13/18/4 14/19/4 
f 15/20/4 14/19/4 13/18/4 16/21/4 
f 17/22/1 7/23/1 10/24/1 18/25/1 
f 19/26/1 18/25/1 10/24/1 20/27/1 
f 10/10/2 13/28/2 12/29/2 7/7/2 
f 21/30/5 22/31/5 23/32/5 9/33/5 
f 8/34/5 9/33/5 23/32/5 24/35/5 
f 13/28/2 6/2/2 5/15/2 12/29/2 
f 24/36/6 8/37/6 7/38/6 17/39/6 
f 12/40/7 11/1/7 17/41/7 7/42/7 
f 24/41/8 4/1/8 5/43/8 8/44/8 
f 25/45/8 26/46/8 27/47/8 28/48/8 
f 29/49/3 23/50/3 18/51/3 30/52/3 
f 31/53/8 32/54/8 33/55/8 34/56/8 
f 35/57/8 34/56/8 33/55/8 36/58/8 
f 37/59/6 38/60/6 27/61/6 26/62/6 
f 1/63/7 23/64/7 29/65/7 39/66/7 
f 18/64/8 14/63/8 40/58/8 30/67/8 
f 33/68/3 32/69/3 41/70/3 42/71/3 
f 43/72/3 44/73/3 25/74/3 28/75/3 
f 45/76/7 21/77/7 9/78/7 46/79/7 
f 3/80/7 46/79/7 9/78/7 6/81/7 
f 24/82/9 17/83/9 18/84/9 23/85/9 
f 3/86/6 6/87/6 13/88/6 16/89/6 
f 23/85/9 1/90/9 4/91/9 24/82/9 
f 20/92/8 16/3/8 13/6/8 10/93/8 
f 1/94/6 39/95/6 40/96/6 14/97/6 
f 41/98/7 47/99/7 48/100/7 42/101/7 
f 9/87/3 21/86/3 20/102/3 10/103/3 
f 11/104/9 14/105/9 18/84/9 17/83/9 
f 1/90/9 14/105/9 11/104/9 4/91/9 
f 34/106/6 35/107/6 48/108/6 47/109/6 
f 49/110/7 44/111/7 43/112/7 37/113/7 
f 38/79/7 37/113/7 43/112/7 50/76/7 
f 40/105/9 33/114/9 42/115/9 48/116/9 
f 30/84/9 40/105/9 48/116/9 29/85/9 
f 29/85/9 48/116/9 35/117/9 36/118/9 
f 39/90/9 29/85/9 36/118/9 40/105/9 
f 40/105/9 36/118/9 33/114/9 
f 41/115/9 37/119/9 26/120/9 25/121/9 
f 47/116/9 41/115/9 25/121/9 34/117/9 
f 34/117/9 25/121/9 44/122/9 49/123/9 
f 31/118/9 34/117/9 49/123/9 32/114/9 
f 32/114/9 49/123/9 37/119/9 41/115/9 
f 27/120/9 3/2/9 16/124/9 20/125/9 
f 28/121/9 27/120/9 20/125/9 43/122/9 
f 43/122/9 20/125/9 21/9/9 45/63/9 
f 50/123/9 43/122/9 45/63/9 46/126/9 
f 38/119/9 50/123/9 46/126/9 27/120/9 
f 27/120/9 46/126/9 3/2/9 
# 53 polygons - 2 triangles

#
# object mirror_001
#

v  -20.4724 3.1496 -0.6889
v  20.4724 3.1496 -0.6889
v  20.4724 28.3465 -0.6889
v  -20.4724 28.3465 -0.6889
# 4 vertices

vn -0.0000 0.0000 1.0000
# 1 vertex normals

vt 0.0000 0.0000 0.0000
# 1 texture coords

g mirror_001
usemtl _Translucent_Glass_Gray_1
s off
f 51/127/10 52/127/10 53/127/10 54/127/10 
# 1 polygons

